<?xml version="1.0" encoding="UTF-8"?>
<svg id="Layer_1" data-name="Layer 1" xmlns="http://www.w3.org/2000/svg" viewBox="0 0 1080 1080">
  <defs>
    <style>
      .cls-1 {
        fill: #7b9f44;
      }
    </style>
  </defs>
  <path class="cls-1" d="M699.08,572.38l-49.66.93c-11.54.22-21.65,9.37-24.83,20.25l-11.58,39.66c-4.4,15.05-21.47,27.3-37.49,29.87l-18.39.25,50.44-177.7c5.47-19.28,21.86-35.64,43.09-35.69l220.68-.52c-4.97,20.85-22.46,37.38-44.08,37.42l-145.69.25c-14.46.02-28.59,6.67-32.64,20.83l-8.02,28.01,98.06.12c-4.71,19.54-19.62,33.86-39.9,36.33ZM846.75,631.59l-23.3-.1c-1.33,0-2.45-.6-3.12-1.38-.62-.71-.89-1.68-.48-3.19l26.43-97.17c-15.68-.02-30.45-.48-45.82-1.82-16.46-1.43-31.94,3.08-45.6,11.97-10.69,6.4-18.6,14.95-26.34,24.64-14.08,17.65-23.02,38.15-24.66,60.85-.72,9.97,1.83,19.14,7.72,27.02,14.69,19.63,52.06,10.84,70.59-4.21,2.49,10.63,11.8,17.04,22.9,15.06,19.75-3.51,33.91-13.61,41.68-31.68ZM750.81,622.12c-14.06-12.31,2.04-44.38,28.48-55.71,7.26-3.11,15.84-4.4,22.78-.32,6.5,3.82,8.48,13.1,6.33,20.4-8.78,29.81-43.23,48.2-57.58,35.64ZM570.61,529.96c-25.96-2.67-47.04,10.47-54.34,36.28l-27.39,96.78c22.13,3.24,46.21-9.47,52.64-31.82l29.1-101.24ZM564.52,449.39c-15.61,0-28.27,12.66-28.27,28.27s12.66,28.27,28.27,28.27,28.27-12.66,28.27-28.27-12.66-28.27-28.27-28.27ZM493.68,631.6l-24.09-.19c-1.05,0-2.14-.6-2.57-1.02-.5-.49-.86-1.58-.51-2.84l26.77-98.02c-15.81.47-30.97-.34-46.77-1.58-19.32-1.52-36.66,5.26-51.96,16.74-12.3,10.32-22.37,22.36-30.31,36.52-12.39,22.09-21.74,56.6-2.88,74.35,16.43,15.46,49.96,6.58,67.9-7.18,1.57,10.01,10.28,16.23,20.82,15.09,19.74-2.15,35.86-14.02,43.6-31.85ZM394.31,617.77c-4.23-9.16-.58-19,4.33-27.13,8.04-13.33,20-23.11,35.4-26.6,6.29-1.42,13.74-.25,18.02,4.87,12.53,15.01-7.24,48.92-36.94,56.57-8.35,2.15-17.45-.44-20.81-7.71ZM322.64,463.27c-14.43-11.29-31.69-16.6-50.2-16.95-32.38-.63-63.55,12.9-72.86,45.44l-49.12,171.72,140.08-.34c24.8-4.83,43.89-20.63,51.61-42.24,8.95-24.52,2.96-50.2-14.8-68.55,25.18-25.84,22.47-67.8-4.71-89.07ZM235.12,532.64l5.66-20.8c3.94-14.48,15.54-25.23,30.59-25.65,11.98-.33,22.2,6.64,25,17.83,2.71,10.83-2.31,22.22-13.57,27.63-16.23-3.05-31.38-2.53-47.69.99ZM208.4,626.43l9.33-33.71c4.57-16.53,18.62-27.52,35.7-28.56s33.63,7.66,40.25,24.1c3.38,8.4,2.38,17.72-2.86,25.63-4.17,6.29-12.15,12.36-21.79,12.38l-60.62.15ZM923.83,421.95c-3.81-3.8-8.4-5.7-13.78-5.7s-9.97,1.9-13.78,5.7c-3.81,3.8-5.71,8.39-5.71,13.77s1.9,9.97,5.71,13.78c3.81,3.81,8.4,5.71,13.78,5.71s9.97-1.9,13.78-5.71c3.81-3.81,5.71-8.4,5.71-13.78s-1.9-9.97-5.71-13.77ZM922,447.76c-3.3,3.32-7.28,4.98-11.93,4.98s-8.64-1.66-11.93-4.98c-3.3-3.32-4.95-7.33-4.95-12.04s1.65-8.71,4.95-12.02c3.3-3.31,7.28-4.97,11.93-4.97s8.64,1.66,11.93,4.97,4.95,7.32,4.95,12.02-1.65,8.71-4.95,12.04ZM913.45,436.62c1.34-.54,2.42-1.29,3.26-2.25.83-.96,1.25-2.19,1.25-3.7,0-1.13-.2-2.05-.61-2.77-.41-.72-1.06-1.34-1.96-1.85-.84-.48-1.67-.77-2.49-.88-.82-.1-1.94-.16-3.35-.16h-6.29v20.62h3.72v-8h2.77l6.38,8h5.12l-7.8-9.02ZM913.59,432.66c-.17.45-.45.85-.85,1.19-.39.35-.9.59-1.53.73-.63.14-1.31.21-2.03.21h-2.21v-6.96h2.59c.74,0,1.34.04,1.8.12.47.08.89.24,1.26.48.45.29.77.63.95,1.04.18.41.27.89.27,1.44,0,.71-.09,1.28-.26,1.74Z"/>
</svg>